<svg width="102" height="102" viewBox="0 0 102 102" fill="none" xmlns="http://www.w3.org/2000/svg">
<path d="M61.3214 51C68.3631 51 74.0714 45.2916 74.0714 38.25C74.0714 31.2084 68.3631 25.5 61.3214 25.5C54.2798 25.5 48.5714 31.2084 48.5714 38.25C48.5714 45.2916 54.2798 51 61.3214 51Z" fill="#1A1B1C"/>
<path fill-rule="evenodd" clip-rule="evenodd" d="M0 51C0 54.9604 0.451424 58.8154 1.30562 62.5163C6.52652 85.1362 26.7939 102 51 102C77.8673 102 99.8821 81.2244 101.856 54.862C101.951 53.5872 102 52.2993 102 51C102 22.8335 79.1665 0 51 0C22.8335 0 0 22.8335 0 51ZM18.3365 50.7257L2.38246 61.7708C1.61754 58.3024 1.21429 54.6983 1.21429 51C1.21429 23.5041 23.5041 1.21429 51 1.21429C78.4959 1.21429 100.786 23.5041 100.786 51C100.786 52.5412 100.716 54.0661 100.579 55.5716L65.9447 74.8127C63.4324 76.2084 60.3343 75.9968 58.0351 74.2724L26.855 50.8874C24.3462 49.0058 20.9149 48.9406 18.3365 50.7257Z" fill="#1A1B1C"/>
</svg>
