<svg width="136" height="136" viewBox="0 0 136 136" fill="none" xmlns="http://www.w3.org/2000/svg">
<circle cx="68" cy="68" r="54" stroke = "#1A1B1C"/>
<circle cx="68" cy="68" r="50" fill="#1A1B1C"/>
<g transform="translate(21, 21)">
<path d="M79.6683 14.412C71.3149 6.03821 59.7627 0.856934 47.0003 0.856934C44.0469 0.856934 41.1583 1.1344 38.3592 1.66469C43.1338 9.56331 60.5795 37.2549 63.9406 42.1803C64.5932 43.1371 65.753 41.2365 72.7783 27.6929L79.6683 14.412Z" fill="#FCFCFC"/>
<path d="M4.08822 30.004C9.58151 16.1459 21.5936 5.58156 36.3413 2.09418C38.0872 4.71298 41.4221 9.88725 45.0668 15.6493L54.3267 30.2908H27.8858C15.1263 30.2908 7.6691 30.2077 4.08822 30.004Z" fill="#FCFCFC"/>
<path d="M10.8694 75.7032C4.60204 67.8246 0.857422 57.8495 0.857422 46.9998C0.857422 41.801 1.71718 36.803 3.30228 32.1402H18.1666C35.552 32.1402 35.9478 32.1674 35.3267 33.3294C34.0953 35.6338 15.8239 67.2621 10.8694 75.7032Z" fill="#FCFCFC"/>
<path d="M55.9643 92.2725C53.0646 92.8434 50.0674 93.1427 47.0003 93.1427C33.1917 93.1427 20.7998 87.0771 12.3436 77.465C14.1707 73.4055 18.9295 64.9319 27.1717 51.0115C27.9468 49.7014 28.7323 48.781 28.917 48.966C29.1016 49.1503 35.6037 59.5196 43.3671 72.0077L55.9643 92.2725Z" fill="#FCFCFC"/>
<path d="M90.5291 62.348C85.3723 76.9733 73.0533 88.2199 57.7841 91.8757C53.5785 85.3895 39.6125 62.9565 39.6125 62.6094C39.6125 62.4658 51.6814 62.348 66.4326 62.348H90.5291Z" fill="#FCFCFC"/>
<path d="M80.9016 15.6966C88.5003 23.922 93.1431 34.9187 93.1431 46.9998C93.1431 51.923 92.3721 56.6662 90.9442 61.115H75.5965C65.6243 61.115 57.4651 60.9646 57.4651 60.7803C57.4651 60.3997 77.4368 22.0157 80.9016 15.6966Z" fill="#FCFCFC"/>
</g>
</svg>
